# xmcd
#
# Track frame offsets: 
#        150
#        15285
#        27773
#        52462
#        73800
#        97172
#        116006
#        137445
#        153578
#        173018
#        189203
#        205570
#        244874
#
# Disc length: 4028 seconds
#
# Revision: 0
# Processed by: cddbd v1.5.1PL0 Copyright (c) Steve Scherf et al.
# Submitted via: ExactAudioCopy v0.95a5
#
DISCID=ac0fba0d
DTITLE=Out Of The Blues - Vdelli
DYEAR=2001
DGENRE=Blues
TTITLE0=Noel Burnt The Kitchen Down
TTITLE1=Skitzoid
TTITLE2=Just Kissed My Baby
TTITLE3=Newtown
TTITLE4=Fire And Rain
TTITLE5=Man In The Mirror
TTITLE6=Addicted To Everything
TTITLE7=Boogie A
TTITLE8=Could Be Good
TTITLE9=Manhole
TTITLE10=Ain't Brining Me Down
TTITLE11=Two By Two (Live)
TTITLE12=Voodoo Chile (Live)
EXTD=
EXTT0=
EXTT1=
EXTT2=
EXTT3=
EXTT4=
EXTT5=
EXTT6=
EXTT7=
EXTT8=
EXTT9=
EXTT10=
EXTT11=
EXTT12=
PLAYORDER=
